<?xml version="1.0" encoding="UTF-8"?>
<svg width="214px" height="180px" viewBox="0 0 214 180" version="1.1" xmlns="http://www.w3.org/2000/svg" xmlns:xlink="http://www.w3.org/1999/xlink">
    <!-- Generator: Sketch 48.2 (47327) - http://www.bohemiancoding.com/sketch -->
    <title>icon-gfx</title>
    <desc>Created with Sketch.</desc>
    <defs></defs>
    <g id="Page-1" stroke="none" stroke-width="1" fill="none" fill-rule="evenodd">
        <g id="Rectangle-13" transform="translate(-14.000000, -7.000000)">
            <rect stroke="#393C3E" stroke-width="9" x="101.5" y="70.5" width="38" height="38" rx="9"></rect>
            <g id="Combined-Shape" transform="translate(167.000000, 142.000000) rotate(-41.000000) translate(-167.000000, -142.000000) translate(140.000000, 86.000000)" stroke="#393C3E" stroke-width="9">
                <path d="M48.2622274,74.8333333 C42.8798583,53.1211468 38.1349519,36.6503196 34.0462752,25.4611428 C31.8892844,19.5582666 29.9351182,15.1868263 28.2384803,12.4066548 C27.7860371,11.6652654 27.3681237,11.0649127 27,10.6096537 C26.6318763,11.0649127 26.2139629,11.6652654 25.7615197,12.4066548 C24.0648818,15.1868263 22.1107156,19.5582666 19.9537248,25.4611428 C15.8650481,36.6503196 11.1201417,53.1211468 5.7377726,74.8333333 L20.1521739,74.8333333 L20.1521739,100.26087 C20.1521739,104.258931 23.393243,107.5 27.3913043,107.5 C31.3893657,107.5 34.6304348,104.258931 34.6304348,100.26087 L34.6304348,74.8333333 L48.2622274,74.8333333 Z"></path>
            </g>
            <path d="M29.3063395,162.69366 L20,172 C20,116.766786 49,87.7667858 107,85 L97.2067043,94.7932957 C54.0712304,99.6199568 32.1013699,121.681734 29.3063395,162.69366 Z M20,172 C20,116.766786 49,87.7667858 107,85 L97.2067043,94.7932957 C54.0712304,99.6199568 32.1013699,121.681734 29.3063395,162.69366 L20,172 Z" id="Path-2" fill="#393C3E" fill-rule="nonzero"></path>
            <circle id="Oval-2" stroke="#393C3E" stroke-width="9" cx="24" cy="164" r="5.5"></circle>
            <g id="Group-8" stroke-width="1" fill-rule="evenodd" transform="translate(181.500000, 51.500000) rotate(-180.000000) translate(-181.500000, -51.500000) translate(135.000000, 7.000000)">
                <path d="M15.3073683,77.4514209 L6,86.7587892 C6,31.6787111 34.9195964,2.75911475 92.7587892,0 L82.9643915,9.79439771 C39.9910061,14.612173 18.101289,36.5936725 15.3073683,77.4514209 Z M6,86.7587892 C6,31.6787111 34.9195964,2.75911475 92.7587892,0 L82.9643915,9.79439771 C39.9910061,14.612173 18.101289,36.5936725 15.3073683,77.4514209 L6,86.7587892 Z" id="Path-2-Copy" fill="#393C3E" fill-rule="nonzero"></path>
                <circle id="Oval-2-Copy" stroke="#393C3E" stroke-width="9" cx="10" cy="79" r="5.5"></circle>
            </g>
        </g>
    </g>
</svg>