<?xml version="1.0" encoding="UTF-8"?>
<svg width="235px" height="126px" viewBox="0 0 235 126" version="1.1" xmlns="http://www.w3.org/2000/svg" xmlns:xlink="http://www.w3.org/1999/xlink">
    <!-- Generator: Sketch 48.2 (47327) - http://www.bohemiancoding.com/sketch -->
    <title>icon-ixd</title>
    <desc>Created with Sketch.</desc>
    <defs></defs>
    <g id="Page-1" stroke="none" stroke-width="1" fill="none" fill-rule="evenodd">
        <g id="Rectangle-13-Copy" transform="translate(-4.000000, -33.000000)" stroke="#393C3E">
            <rect stroke-width="9" x="8.5" y="37.5" width="38" height="38" rx="9"></rect>
            <rect id="Rectangle-13-Copy-2" stroke-width="9" x="102.5" y="37.5" width="38" height="38" rx="9"></rect>
            <rect id="Rectangle-13-Copy-3" stroke-width="9" x="196.5" y="37.5" width="38" height="38" rx="9"></rect>
            <path d="M50.4893817,56.5 L97.5832691,56.5" id="Line-8" stroke-width="9" stroke-linecap="square"></path>
            <path d="M121.5,79.5 L121.5,113.5" id="Line-8-Copy-3" stroke-width="9" stroke-linecap="square"></path>
            <path d="M141.5,56.5 L195.583269,56.5" id="Line-8-Copy" stroke-width="9" stroke-linecap="square"></path>
            <path d="M141.5,135.5 L195.583269,135.5" id="Line-8-Copy-2" stroke-width="9" stroke-linecap="square"></path>
            <g id="Group-9" transform="translate(98.000000, 112.000000)" fill-rule="evenodd" stroke-width="1">
                <g>
                    <rect id="Rectangle-13-Copy-4" stroke-width="9" x="4.5" y="4.5" width="38" height="38" rx="9"></rect>
                    <path d="M4.5,23.5 L23.6049732,4.39502683" id="Line-9" stroke-width="4" stroke-linecap="square"></path>
                    <path d="M15.5,38.5 L38.6049732,15.3950268" id="Line-9-Copy" stroke-width="4" stroke-linecap="square"></path>
                    <path d="M27.5,40.5 L42.508331,25.491669" id="Line-9-Copy" stroke-width="4" stroke-linecap="square"></path>
                    <path d="M4.5,36.5 L36.0356941,4.96430594" id="Line-9" stroke-width="4" stroke-linecap="square"></path>
                </g>
            </g>
            <g id="Group-9" transform="translate(192.000000, 112.000000)" fill-rule="evenodd" stroke-width="1">
                <g>
                    <rect id="Rectangle-13-Copy-4" stroke-width="9" x="4.5" y="4.5" width="38" height="38" rx="9"></rect>
                    <path d="M4.5,23.5 L23.6049732,4.39502683" id="Line-9" stroke-width="4" stroke-linecap="square"></path>
                    <path d="M15.5,38.5 L38.6049732,15.3950268" id="Line-9-Copy" stroke-width="4" stroke-linecap="square"></path>
                    <path d="M27.5,40.5 L42.508331,25.491669" id="Line-9-Copy" stroke-width="4" stroke-linecap="square"></path>
                    <path d="M4.5,36.5 L36.0356941,4.96430594" id="Line-9" stroke-width="4" stroke-linecap="square"></path>
                </g>
            </g>
        </g>
    </g>
</svg>