<svg width="26" height="26" viewBox="0 0 26 26" fill="none" xmlns="http://www.w3.org/2000/svg">
<g clip-path="url(#clip0_1192_12014)">
<path d="M25 8H22V2C22 0.896 21.104 0 20 0H6C4.896 0 4 0.896 4 2V8H1C0.447 8 0 8.448 0 9V19C0 19.553 0.447 20 1 20H4V24C4 25.104 4.896 26 6 26H20C21.104 26 22 25.104 22 24V20H25C25.553 20 26 19.553 26 19V9C26 8.448 25.553 8 25 8ZM20 24H6V15H20V24ZM20 8H6V2H20V8ZM22.5 13C21.672 13 21 12.328 21 11.5C21 10.672 21.672 10 22.5 10C23.328 10 24 10.672 24 11.5C24 12.328 23.328 13 22.5 13ZM18 17H8V19H18V17ZM15 20H8V22H15V20Z" fill="white"/>
</g>
<defs>
<clipPath id="clip0_1192_12014">
<rect width="26" height="26" fill="white"/>
</clipPath>
</defs>
</svg>
