<?xml version="1.0" encoding="iso-8859-1"?>
<!-- Generator: Adobe Illustrator 16.0.4, SVG Export Plug-In . SVG Version: 6.00 Build 0)  -->
<!DOCTYPE svg PUBLIC "-//W3C//DTD SVG 1.1//EN" "http://www.w3.org/Graphics/SVG/1.1/DTD/svg11.dtd">
<svg version="1.1" id="Layer_1" xmlns="http://www.w3.org/2000/svg" xmlns:xlink="http://www.w3.org/1999/xlink" x="0px" y="0px"
	 width="26px" height="26px" viewBox="0 0 26 26" style="enable-background:new 0 0 26 26;" xml:space="preserve">
<g id="_x35_17-printer.png">
	<g>
		<path fill="#ffdddc" d="M25,8h-3V2c0-1.104-0.896-2-2-2H6C4.896,0,4,0.896,4,2v6H1C0.447,8,0,8.448,0,9v10c0,0.553,0.447,1,1,1h3v4
			c0,1.104,0.896,2,2,2h14c1.104,0,2-0.896,2-2v-4h3c0.553,0,1-0.447,1-1V9C26,8.448,25.553,8,25,8z M20,24H6v-9h14V24z M20,8H6V2
			h14V8z M22.5,13c-0.828,0-1.5-0.672-1.5-1.5s0.672-1.5,1.5-1.5s1.5,0.672,1.5,1.5S23.328,13,22.5,13z M18,17H8v2h10V17z M15,20H8
			v2h7V20z"/>
	</g>
</g>
<g>
</g>
<g>
</g>
<g>
</g>
<g>
</g>
<g>
</g>
<g>
</g>
<g>
</g>
<g>
</g>
<g>
</g>
<g>
</g>
<g>
</g>
<g>
</g>
<g>
</g>
<g>
</g>
<g>
</g>
</svg>
